<svg xmlns="http://www.w3.org/2000/svg" viewBox="0 0 44 44" width="44" height="44">
  <!-- White rounded background -->
  <rect width="44" height="44" rx="5" fill="white"/>

  <!-- ITA logo — real vector paths from company logo, recoloured black, scaled to fit -->
  <g transform="translate(2, 6.285) scale(1.08)" fill="#000000">
    <path
       d="m 13.103399,11.006207 v 3.073196 h -2.006597 v 3.581178 h 2.006597 v 5.156274 c 0,1.761066 0.491162,3.082014 1.473296,3.962548 0.982133,0.8636 2.353926,1.295529 4.114993,1.295529 0.643466,0 1.261483,-0.06814 1.854149,-0.203605 0.592667,-0.118533 1.092219,-0.313012 1.498619,-0.583946 L 20.85073,23.909295 c -0.4064,0.287867 -0.897562,0.431496 -1.473295,0.431496 -0.423334,0 -0.770864,-0.135242 -1.041797,-0.406175 -0.270933,-0.287867 -0.406178,-0.677339 -0.406178,-1.168405 v -5.10563 h 3.149679 V 14.079403 H 17.92946 v -3.073196 z m 16.241903,2.844786 c -1.083733,0 -2.175621,0.143632 -3.276288,0.431499 -1.083733,0.270933 -2.015209,0.660405 -2.794142,1.168405 l 1.62574,3.276801 c 0.474133,-0.372533 1.049692,-0.660313 1.727025,-0.863513 0.677333,-0.220133 1.346197,-0.330213 2.006597,-0.330213 1.016,0 1.752484,0.211254 2.209684,0.634587 0.431075,0.369494 0.666237,0.886336 0.705384,1.549776 H 28.812 c -1.4224,0 -2.582423,0.169312 -3.47989,0.507979 -0.897467,0.321733 -1.566331,0.795602 -2.006597,1.422135 -0.423334,0.6096 -0.634585,1.337697 -0.634585,2.184363 0,0.795867 0.194477,1.515576 0.583944,2.159042 0.4064,0.643467 0.990864,1.151406 1.752864,1.52394 0.762,0.372533 1.69296,0.559138 2.793627,0.559138 1.202267,0 2.167813,-0.237453 2.895947,-0.711586 0.500078,-0.329594 0.889547,-0.762037 1.168405,-1.297593 v 1.780251 h 4.495331 v -7.645011 c 0,-2.1844 -0.618016,-3.78474 -1.854149,-4.80074 -1.2192,-1.032933 -2.946395,-1.54926 -5.181595,-1.54926 z M 4.594357,14.079403 V 27.846004 H 9.4204209 V 14.079403 Z zm 24.878069,8.153508 h 2.083076 v 1.193726 c -0.2032,0.541867 -0.525048,0.948113 -0.965314,1.219047 -0.423333,0.254 -0.897721,0.380854 -1.422654,0.380854 -0.5588,0 -0.999117,-0.126854 -1.32085,-0.380854 -0.321734,-0.254 -0.482656,-0.592627 -0.482656,-1.015961 0,-0.423333 0.152535,-0.761957 0.457335,-1.015957 0.321733,-0.254 0.87213,-0.380855 1.651063,-0.380855 z" />
    <path
       d="M 6.9013889 1.1844241 A 6.0812116 6.0812116 0 0 0 0.82010514 7.2657078 A 6.0812116 6.0812116 0 0 0 6.9013889 13.346992 A 6.0812116 6.0812116 0 0 0 12.982156 7.2657078 A 6.0812116 6.0812116 0 0 0 6.9013889 1.1844241 z M 6.9013889 2.1440556 A 5.1216646 5.1216646 0 0 1 12.023041 7.2657078 A 5.1216646 5.1216646 0 0 1 6.9013889 12.38736 A 5.1216646 5.1216646 0 0 1 1.7797367 7.2657078 A 5.1216646 5.1216646 0 0 1 6.9013889 2.1440556 z " />
    <path
       d="M 6.9013891,3.0390918 A 4.2263803,4.2263803 0 0 0 2.6747729,7.265708 4.2263803,4.2263803 0 0 0 6.9013891,11.492324 4.2263803,4.2263803 0 0 0 11.127488,7.265708 4.2263803,4.2263803 0 0 0 6.9013891,3.0390918 Z m 0,1.3637413 A 2.8628137,2.8628137 0 0 1 9.7637472,7.265708 2.8628137,2.8628137 0 0 1 6.9013891,10.128583 2.8628137,2.8628137 0 0 1 4.0385142,7.265708 2.8628137,2.8628137 0 0 1 6.9013891,4.4028331 Z" />
    <circle
       cx="6.9011307"
       cy="7.265708"
       r="0.9942221" />
  </g>
</svg>